<svg width="28" height="22" viewBox="0 0 28 22" fill="none" xmlns="http://www.w3.org/2000/svg">
<path d="M1.88774 10.0525C1.84179 9.86827 1.83842 9.676 1.87787 9.49027C1.91732 9.30454 1.99857 9.13024 2.11544 8.9806C2.23231 8.83096 2.38173 8.70991 2.55237 8.62663C2.723 8.54336 2.91037 8.50005 3.10024 8.5H24.9002C25.0901 8.50005 25.2775 8.54336 25.4481 8.62663C25.6187 8.70991 25.7682 8.83096 25.885 8.9806C26.0019 9.13024 26.0832 9.30454 26.1226 9.49027C26.1621 9.676 26.1587 9.86827 26.1127 10.0525L23.849 19.1062C23.7138 19.6471 23.4017 20.1272 22.9623 20.4704C22.5229 20.8135 21.9815 20.9999 21.424 21H6.57649C6.019 20.9999 5.47754 20.8135 5.03815 20.4704C4.59877 20.1272 4.28668 19.6471 4.15149 19.1062L1.88774 10.0537V10.0525Z" stroke="#000033" stroke-width="2" stroke-linejoin="round"/>
<path d="M10.25 13.5V16" stroke="#000033" stroke-width="2" stroke-linecap="round"/>
<path d="M17.75 13.5V16" stroke="#000033" stroke-width="2" stroke-linecap="round"/>
<path d="M6.5 8.5L11.5 1" stroke="#000033" stroke-width="2" stroke-linecap="round"/>
<path d="M21.5 8.5L16.5 1" stroke="#000033" stroke-width="2" stroke-linecap="round"/>
</svg>
