<svg width="17" height="22" viewBox="0 0 17 22" fill="none" xmlns="http://www.w3.org/2000/svg">
<path d="M3.11792 0.512473L4.4145 0.128203C5.12478 -0.0828457 5.88873 -0.0320406 6.56379 0.271138C7.23884 0.574316 7.7789 1.10916 8.08317 1.77586L9.08533 3.97199C9.34695 4.54544 9.4198 5.18521 9.29367 5.80153C9.16754 6.41785 8.84875 6.9798 8.38204 7.40853L6.72214 8.93356C6.67362 8.97812 6.64288 9.03831 6.63548 9.10325C6.5866 9.53788 6.88547 10.3842 7.57431 11.561C8.0754 12.4161 8.52981 13.0171 8.91534 13.3532C9.18422 13.5886 9.33199 13.639 9.39532 13.6214L11.6285 12.9481C12.2384 12.7643 12.8913 12.7732 13.4958 12.9734C14.1003 13.1737 14.6261 13.5553 14.9994 14.0648L16.4227 16.0092C16.8555 16.6004 17.0558 17.3264 16.9866 18.0522C16.9173 18.778 16.5831 19.4545 16.046 19.9559L15.0616 20.8755C14.5392 21.363 13.8975 21.7089 13.1991 21.8794C12.5007 22.05 11.7694 22.0394 11.0763 21.8487C8.01651 21.0069 5.27334 18.4626 2.81571 14.2685C0.354749 10.0689 -0.508533 6.45168 0.286975 3.41584C0.466048 2.73306 0.820594 2.10725 1.31644 1.59872C1.81228 1.09019 2.43271 0.716085 3.11792 0.512473V0.512473ZM3.599 2.08568C3.18799 2.2077 2.8158 2.43195 2.51826 2.73682C2.22073 3.0417 2.00788 3.41694 1.90021 3.82639C1.23136 6.37943 1.99687 9.58605 4.25896 13.4474C6.51771 17.3032 8.94979 19.5585 11.5252 20.2679C11.9409 20.382 12.3794 20.3881 12.7982 20.2856C13.217 20.1832 13.6018 19.9757 13.915 19.6833L14.9005 18.7636C15.1448 18.5357 15.2967 18.2282 15.3282 17.8981C15.3597 17.5681 15.2685 17.2381 15.0716 16.9693L13.6495 15.026C13.4798 14.7942 13.2407 14.6205 12.9657 14.5294C12.6907 14.4383 12.3937 14.4343 12.1163 14.5181L9.87751 15.1935C8.57759 15.5745 7.39766 14.5443 6.13107 12.3821C5.27779 10.9261 4.88003 9.79844 4.97891 8.92152C5.03113 8.46609 5.24557 8.04569 5.58555 7.73258L7.24544 6.20755C7.45768 6.01269 7.60266 5.75724 7.66005 5.47705C7.71744 5.19686 7.68435 4.906 7.56543 4.64529L6.56326 2.44915C6.42496 2.14634 6.17964 1.90341 5.87302 1.76564C5.5664 1.62787 5.2194 1.60465 4.8967 1.70032L3.599 2.08568V2.08568Z" fill="#000033"/>
</svg>
