<svg width="24" height="22" viewBox="0 0 24 22" fill="none" xmlns="http://www.w3.org/2000/svg">
<path d="M8 6V3.5C8 2.83696 8.26339 2.20107 8.73223 1.73223C9.20107 1.26339 9.83696 1 10.5 1H20.5C21.163 1 21.7989 1.26339 22.2678 1.73223C22.7366 2.20107 23 2.83696 23 3.5V18.5C23 19.163 22.7366 19.7989 22.2678 20.2678C21.7989 20.7366 21.163 21 20.5 21H11C9.61937 21 8 19.8806 8 18.5V16" stroke="#000033" stroke-width="2" stroke-linecap="round" stroke-linejoin="round"/>
<path d="M14 16L19 11L14 6" stroke="#000033" stroke-width="1.5" stroke-linecap="round" stroke-linejoin="round"/>
<path d="M1 11H18" stroke="#000033" stroke-width="1.5" stroke-linecap="round" stroke-linejoin="round"/>
</svg>
