<svg width="108" height="39" viewBox="0 0 108 39" fill="none" xmlns="http://www.w3.org/2000/svg">
<path fill-rule="evenodd" clip-rule="evenodd" d="M7.89305 0L0 5.49208V9.89827L7.89305 4.35786L15.7765 9.89781V5.49208L7.89305 0Z" fill="#EC1944"/>
<path fill-rule="evenodd" clip-rule="evenodd" d="M86.1408 17.0012C85.0618 17.0012 84.0463 17.2471 83.151 17.6983L82.0763 11.1078H79.8378V29.0195C79.946 29.1685 80.0242 29.3649 80.1039 29.5648C80.2086 29.8277 80.3158 30.0965 80.4965 30.2717C83.5631 33.2424 88.5525 33.2424 91.6196 30.2717C94.6848 27.2995 94.6862 22.196 91.6201 19.2243C90.107 17.7593 88.127 17.021 86.1408 17.0012ZM7.90874 16.9903C11.4943 16.9903 14.0854 19.8075 14.0854 23.2831V32.5H10.9444V23.8401C10.9444 21.91 9.32352 20.3405 7.33014 20.3405C6.40668 20.3405 5.53711 20.6771 4.87265 21.2767V32.5H1.73242V11.108H4.0183L4.91892 17.698C5.81377 17.2468 6.82977 16.9903 7.90874 16.9903ZM51.0874 18.763L48.2528 20.7967V26.0687C48.2528 27.6216 49.5117 29.3363 51.1141 29.3363V32.461H50.8813C47.5043 32.461 44.7551 29.3418 44.7551 26.0687V14.5228H46.9516L47.6069 17.0557H50.8351L51.0874 18.763ZM107.931 17.0889H104.674L104.675 27.9436C104.011 28.5442 103.193 29.1176 102.268 29.1176C100.276 29.1176 98.679 27.3098 98.679 25.3797V17.0889H95.6364L95.6374 24.5559V25.9391C95.6374 29.4147 98.1049 32.4688 101.691 32.4688C102.781 32.4688 103.752 31.9684 104.653 31.5044L104.674 31.4936V31.5949C104.674 33.954 102.754 35.866 100.321 35.866H99.1679V39.0001L100.557 38.9992C104.771 38.9992 107.932 35.6802 107.932 31.5967L107.931 17.0889ZM74.6744 28.7428C74.257 29.1528 74.0151 29.7196 74.0151 30.2961C74.0151 30.8758 74.257 31.4435 74.6744 31.854C75.0985 32.2585 75.6834 32.4934 76.2826 32.4934C76.8774 32.4934 77.4623 32.2585 77.8869 31.854C78.3052 31.4435 78.5462 30.8758 78.5462 30.2961C78.5462 29.7196 78.3052 29.1528 77.8869 28.7428C77.4623 28.3313 76.8774 28.0969 76.2826 28.0969C75.6834 28.0969 75.0985 28.3313 74.6744 28.7428ZM38.3343 25.8757C39.2554 25.8757 40.0014 26.6296 40.0014 27.5598C40.0014 28.4895 39.2554 29.2439 38.3343 29.2439H32.9404V32.5H38.569C41.2707 32.5 43.4611 30.2883 43.4611 27.5598C43.4611 24.8313 41.2707 22.6192 38.569 22.6192H36.8551C36.2336 22.6192 35.7289 22.1095 35.7289 21.4813C35.7289 20.8531 36.2336 20.3434 36.8551 20.3434H41.3856V17.0889H36.619C34.2164 17.0889 32.2688 19.0558 32.2688 21.4823C32.2688 23.9087 34.2164 25.8757 36.619 25.8757H38.3343ZM23.6648 32.5115C19.3279 32.5115 15.7996 29.0301 15.7996 24.7503C15.7996 20.469 19.3279 16.9895 23.6648 16.9895C28.0017 16.9895 31.5291 20.469 31.5291 24.7503C31.5291 29.0301 28.0017 32.5115 23.6648 32.5115ZM19.2574 24.7502C19.2574 22.3502 21.2341 20.4007 23.6653 20.4007C26.0951 20.4007 28.0723 22.3502 28.0723 24.7502C28.0723 27.1474 26.0951 29.0988 23.6653 29.0988C21.2341 29.0988 19.2574 27.1474 19.2574 24.7502ZM67.0596 23.1529C67.0596 19.8798 69.8084 17.216 73.1859 17.216H73.6811V20.3407H73.4182C71.8158 20.3407 70.2074 21.5995 70.2074 23.1529L70.2084 32.481H67.0596V23.1529ZM65.5596 19.8228C64.1157 18.0975 61.9163 16.9899 59.4511 16.9899C55.1152 16.9899 51.5859 20.4062 51.5859 24.6099C51.5859 28.8122 55.1152 32.4688 59.4511 32.4688C61.5399 32.4688 63.4388 31.6727 64.8493 30.3797L62.4033 27.9647C61.6215 28.6517 60.5873 29.0724 59.4511 29.0724C57.0208 29.0724 55.0442 26.9658 55.0442 24.6099C55.0442 22.2536 57.0208 20.3392 59.4511 20.3392C60.4619 20.3392 61.3906 20.6725 62.1343 21.2296L58.8121 23.9247V27.7816L65.5596 22.6747V19.8228ZM83.1043 21.4536V27.9525C84.8312 29.4721 87.5079 29.4282 89.1743 27.8115C90.894 26.1468 90.895 23.2607 89.1752 21.5932C87.5089 19.9784 84.8312 19.9359 83.1043 21.4536Z" fill="#04133A"/>
</svg>
