<svg width="16" height="16" viewBox="0 0 16 16" fill="none" xmlns="http://www.w3.org/2000/svg">
<g clip-path="url(#clip0_1206_1909)">
<path d="M7.83688 16C7.39807 15.9323 7.06376 15.6967 6.76251 15.3984C6.52454 15.1636 6.26819 14.9448 6.02776 14.7119C5.86816 14.5577 5.68733 14.5087 5.46527 14.5432C5.05245 14.6074 4.63868 14.6644 4.22395 14.7142C3.30755 14.8234 2.64465 14.3361 2.49361 13.4523C2.42871 13.0727 2.35605 12.6942 2.28952 12.3141C2.27612 12.2185 2.23774 12.1278 2.17793 12.0502C2.11812 11.9727 2.03884 11.9109 1.94745 11.8707C1.57028 11.6867 1.19719 11.4953 0.825323 11.3019C0.0497532 10.8996 -0.207818 10.1363 0.172211 9.37425C0.354266 9.00829 0.539587 8.6431 0.730622 8.28144C0.780731 8.19493 0.807027 8.09761 0.807027 7.99865C0.807027 7.89969 0.780731 7.80236 0.730622 7.71586C0.541219 7.35889 0.359573 6.9984 0.178743 6.63753C-0.209451 5.86254 0.0530187 5.09655 0.8441 4.68949C1.20739 4.50239 1.56905 4.31217 1.93765 4.13525C2.15277 4.03192 2.26094 3.87575 2.29809 3.65225C2.36299 3.25145 2.43239 2.85104 2.51647 2.45376C2.69567 1.6091 3.3896 1.15702 4.27661 1.29089C4.68929 1.35312 5.10361 1.40635 5.51834 1.4635C5.60711 1.47785 5.6982 1.47108 5.78361 1.44378C5.86902 1.41648 5.94613 1.36949 6.00817 1.30693C6.3184 1.0152 6.63135 0.725562 6.94702 0.438008C7.58258 -0.144017 8.42468 -0.144408 9.06024 0.438008C9.3668 0.718256 9.67253 0.998505 9.97297 1.2858C10.1383 1.44471 10.3228 1.49285 10.5506 1.45724C10.9628 1.39265 11.3763 1.33277 11.7915 1.28697C12.6944 1.18716 13.3426 1.65411 13.5038 2.51482C13.5753 2.8937 13.6463 3.27259 13.7079 3.65304C13.7439 3.87653 13.8529 4.03349 14.0676 4.13682C14.4313 4.31139 14.7876 4.50004 15.1464 4.68479C15.9628 5.10281 16.2212 5.86684 15.815 6.66727C15.6416 7.00858 15.4742 7.35302 15.2909 7.68924C15.1746 7.90217 15.1721 8.09709 15.2885 8.31119C15.4787 8.6615 15.6559 9.01885 15.8326 9.37582C16.2114 10.1391 15.9551 10.9023 15.1795 11.3035C14.8121 11.4945 14.4447 11.6863 14.0716 11.8648C13.85 11.9709 13.7426 12.1317 13.7043 12.3615C13.641 12.7572 13.5704 13.1521 13.4875 13.5447C13.3083 14.3909 12.6181 14.8442 11.7323 14.7123C11.3192 14.6508 10.9053 14.5976 10.4918 14.5401C10.4033 14.5252 10.3123 14.5314 10.2269 14.5582C10.1415 14.585 10.0642 14.6314 10.0019 14.6935C9.75009 14.9311 9.48803 15.1585 9.2423 15.4012C8.94105 15.6994 8.60674 15.935 8.16793 16.0028L7.83688 16ZM11.9923 13.8109C12.278 13.8191 12.4793 13.6735 12.5295 13.4234C12.6009 13.0656 12.6805 12.7087 12.7242 12.3474C12.8026 11.7016 13.1299 11.2468 13.7516 10.9755C14.0819 10.8311 14.3966 10.6542 14.7166 10.4894C15.0366 10.3246 15.1203 10.0882 14.9615 9.77349C14.7774 9.40831 14.5941 9.04273 14.4035 8.68107C14.1635 8.22508 14.1635 7.77457 14.4035 7.31858C14.5888 6.96631 14.7664 6.60895 14.9464 6.25355C15.1264 5.89815 15.0497 5.68053 14.6872 5.49579C14.3137 5.30556 13.9394 5.11651 13.5663 4.92551C13.1389 4.70671 12.8658 4.37401 12.7793 3.91137C12.6977 3.4769 12.6197 3.04087 12.5344 2.60641C12.4752 2.30229 12.2535 2.15003 11.9364 2.19387C11.5229 2.24945 11.1106 2.30346 10.6963 2.36726C10.1477 2.4518 9.67907 2.31481 9.28475 1.93436C8.99901 1.65764 8.70062 1.38991 8.40754 1.11867C8.1218 0.854075 7.87689 0.855641 7.58707 1.12376C7.28228 1.40609 6.97777 1.68843 6.67353 1.97076C6.32901 2.28898 5.92204 2.44045 5.44241 2.37822C4.99095 2.32147 4.53867 2.25962 4.08966 2.197C3.75045 2.15003 3.52716 2.29328 3.46389 2.61424C3.39572 2.95633 3.31653 3.29803 3.27694 3.64364C3.20183 4.29729 2.86875 4.75407 2.24176 5.02766C1.9152 5.16974 1.60661 5.34431 1.29107 5.50596C0.957986 5.67701 0.878388 5.90833 1.04207 6.23203C1.22617 6.59721 1.40945 6.96239 1.59967 7.32484C1.8352 7.77574 1.8352 8.22273 1.59967 8.67324C1.41312 9.03138 1.23229 9.39226 1.04942 9.75235C0.875531 10.0956 0.951863 10.3195 1.30414 10.4996C1.67151 10.6882 2.03889 10.8777 2.41116 11.062C2.88997 11.3008 3.15897 11.6765 3.24224 12.1857C3.30715 12.5815 3.38266 12.9752 3.46022 13.3686C3.52798 13.713 3.74596 13.852 4.10313 13.7991C4.51622 13.7388 4.93013 13.6856 5.34322 13.6273C5.88122 13.551 6.33636 13.7056 6.72088 14.0704C7.00661 14.342 7.29766 14.6074 7.58666 14.8747C7.87566 15.142 8.12139 15.1444 8.40713 14.8798C8.69287 14.6152 8.98391 14.3577 9.26067 14.0856C9.67457 13.6801 10.164 13.54 10.7432 13.6398C11.1661 13.7111 11.5927 13.7569 11.9923 13.8109Z" fill="#6A7BA5"/>
<path d="M11.678 4.96305C11.6347 5.05582 11.5964 5.15093 11.5466 5.23978C11.5155 5.28269 11.4784 5.32128 11.4364 5.35446C9.37116 7.33499 7.30611 9.31565 5.24119 11.2964C5.12282 11.4099 5.00077 11.5074 4.82116 11.5031C4.73281 11.5026 4.64631 11.4787 4.57128 11.434C4.49625 11.3892 4.43562 11.3254 4.39612 11.2497C4.35662 11.1739 4.33981 11.0891 4.34754 11.0047C4.35527 10.9203 4.38724 10.8396 4.43991 10.7716C4.47666 10.7258 4.5172 10.683 4.56114 10.6436C6.62606 8.66304 8.69125 6.68238 10.7567 4.70159C10.8747 4.58847 10.9967 4.49258 11.1767 4.49454C11.4404 4.49845 11.6515 4.69924 11.678 4.96305Z" fill="#6A7BA5"/>
<path d="M6.06671 7.22734C5.71779 7.22586 5.37717 7.12513 5.08798 6.93791C4.7988 6.75069 4.57406 6.48539 4.44222 6.17562C4.31038 5.86584 4.27737 5.52552 4.34736 5.19774C4.41736 4.86996 4.58722 4.56948 4.83543 4.33432C5.08364 4.09917 5.39905 3.93993 5.7417 3.87677C6.08435 3.81361 6.43885 3.84937 6.76029 3.97951C7.08174 4.10966 7.35568 4.32834 7.54743 4.60787C7.73918 4.8874 7.84012 5.2152 7.83746 5.54977C7.83617 5.77144 7.78934 5.99069 7.69964 6.195C7.60994 6.3993 7.47912 6.58465 7.31467 6.74045C7.15022 6.89625 6.95535 7.01944 6.74122 7.10298C6.52709 7.18653 6.29788 7.22879 6.06671 7.22734ZM6.081 4.77478C5.86965 4.77248 5.66595 4.85054 5.51448 4.9919C5.36301 5.13325 5.2761 5.32638 5.27277 5.52902C5.26379 5.94666 5.64015 6.30949 6.07651 6.30832C6.28762 6.30557 6.48924 6.2238 6.63834 6.08047C6.78744 5.93713 6.8722 5.74359 6.87453 5.54116C6.87518 5.33866 6.79196 5.14419 6.64317 5.00049C6.49438 4.85679 6.29218 4.77561 6.081 4.77478Z" fill="#6A7BA5"/>
<path d="M9.92881 8.77305C10.2777 8.77383 10.6185 8.87387 10.908 9.0605C11.1976 9.24714 11.4228 9.51197 11.5553 9.82145C11.6878 10.1309 11.7215 10.4712 11.6521 10.799C11.5828 11.1269 11.4135 11.4276 11.1658 11.6632C10.9181 11.8988 10.603 12.0585 10.2605 12.1223C9.91805 12.186 9.56353 12.1509 9.24189 12.0213C8.92025 11.8917 8.64595 11.6735 8.45374 11.3943C8.26153 11.1151 8.16004 10.7875 8.16214 10.453C8.16257 10.2313 8.20866 10.0119 8.29778 9.80731C8.38689 9.60276 8.51727 9.4171 8.68143 9.26101C8.84559 9.10491 9.04029 8.98144 9.25435 8.8977C9.46842 8.81397 9.69762 8.7716 9.92881 8.77305ZM9.91779 11.2244C10.1291 11.227 10.3328 11.1491 10.4842 11.0078C10.6356 10.8664 10.7223 10.6732 10.7252 10.4706C10.7354 10.0522 10.3627 9.6909 9.92269 9.69207C9.71151 9.69431 9.50966 9.7758 9.36041 9.91906C9.21115 10.0623 9.12638 10.256 9.12426 10.4584C9.12361 10.6609 9.20683 10.8553 9.35564 10.999C9.50444 11.1426 9.70664 11.2237 9.91779 11.2244Z" fill="#6A7BA5"/>
</g>
<defs>
<clipPath id="clip0_1206_1909">
<rect width="16" height="16" fill="white"/>
</clipPath>
</defs>
</svg>
