<svg width="16" height="17" viewBox="0 0 16 17" fill="none" xmlns="http://www.w3.org/2000/svg">
<path d="M4 15.5837H14V14.167H4.008C3.7 14.1585 3.33333 14.0289 3.33333 13.4587C3.33333 12.8885 3.7 12.7588 4.008 12.7503H14V2.83366C14 2.05237 13.402 1.41699 12.6667 1.41699H4C3.196 1.41699 2 1.98295 2 3.54199V13.4587C2 15.0177 3.196 15.5837 4 15.5837ZM3.33333 5.66699V3.54199C3.33333 2.97178 3.7 2.84216 4 2.83366H12.6667V11.3337H3.33333V5.66699Z" fill="#6A7BA5"/>
<path d="M5.33301 4.25H11.333V5.66667H5.33301V4.25Z" fill="#6A7BA5"/>
</svg>
