<svg width="18" height="18" viewBox="0 0 18 18" fill="none" xmlns="http://www.w3.org/2000/svg">
<g clip-path="url(#clip0_1135_6985)">
<path d="M16.5693 11.1835C16.0324 10.7117 15.3813 10.3041 14.6339 9.97199C14.3144 9.8301 13.9405 9.97396 13.7986 10.2933C13.6567 10.6127 13.8006 10.9866 14.12 11.1286C14.7502 11.4087 15.2933 11.747 15.7339 12.1342C16.2771 12.6115 16.5887 13.3027 16.5887 14.0308V15.2015C16.5887 15.5504 16.3048 15.8343 15.9559 15.8343H3.55273C3.20382 15.8343 2.91992 15.5504 2.91992 15.2015V14.0308C2.91992 13.3027 3.23151 12.6115 3.77471 12.1342C4.41408 11.5723 6.27692 10.2655 9.7543 10.2655C12.3363 10.2655 14.4371 8.16476 14.4371 5.58272C14.4371 3.00067 12.3363 0.899902 9.7543 0.899902C7.17225 0.899902 5.07148 3.00067 5.07148 5.58272C5.07148 7.0922 5.78958 8.43692 6.90194 9.29381C4.86656 9.74123 3.60044 10.6025 2.93933 11.1835C2.12273 11.901 1.6543 12.9387 1.6543 14.0308V15.2015C1.6543 16.2483 2.50587 17.0999 3.55273 17.0999H15.9559C17.0027 17.0999 17.8543 16.2483 17.8543 15.2015V14.0308C17.8543 12.9387 17.3859 11.901 16.5693 11.1835ZM6.33711 5.58272C6.33711 3.69849 7.87007 2.16553 9.7543 2.16553C11.6385 2.16553 13.1715 3.69849 13.1715 5.58272C13.1715 7.46694 11.6385 8.9999 9.7543 8.9999C7.87007 8.9999 6.33711 7.46694 6.33711 5.58272Z" fill="#6A7BA5" stroke="#6A7BA5" stroke-width="0.3"/>
</g>
<defs>
<clipPath id="clip0_1135_6985">
<rect width="18" height="18" fill="white"/>
</clipPath>
</defs>
</svg>
