<svg width="18" height="16" viewBox="0 0 18 16" fill="none" xmlns="http://www.w3.org/2000/svg">
<path d="M10.668 11.3334V13.0001C10.668 13.4421 10.4924 13.866 10.1798 14.1786C9.86725 14.4912 9.44333 14.6667 9.0013 14.6667L2.33463 14.6667C1.89261 14.6667 1.46868 14.4912 1.15612 14.1786C0.843562 13.866 0.667968 13.4421 0.667968 13.0001L0.667968 3.00008C0.667968 2.55805 0.843562 2.13413 1.15612 1.82157C1.46868 1.50901 1.89261 1.33342 2.33463 1.33342L8.66797 1.33342C9.58839 1.33342 10.668 2.07967 10.668 3.00008V4.66675" stroke="#6A7BA5" stroke-width="1.3" stroke-linecap="round" stroke-linejoin="round"/>
<path d="M13.3359 11.3337L16.6693 8.00033L13.3359 4.66699" stroke="#6A7BA5" stroke-linecap="round" stroke-linejoin="round"/>
<path d="M4.66797 8.00024H16.0013" stroke="#6A7BA5" stroke-linecap="round" stroke-linejoin="round"/>
</svg>
