<svg width="17" height="22" viewBox="0 0 17 22" fill="none" xmlns="http://www.w3.org/2000/svg">
<path d="M5.09281 1.07027C4.86763 1.07027 4.50536 1.22753 3.87875 1.39461C3.5458 1.48944 3.21885 1.60431 2.89966 1.73861C2.07723 2.23004 1.00024 2.9082 1.00024 5.89607C0.994972 6.63706 1.07713 7.37606 1.24501 8.09765C1.83401 10.3176 2.74799 12.4374 3.95708 14.3879C5.25925 16.7639 7.1514 18.7615 9.44974 20.1867C10.4164 20.7956 11.553 21.0748 12.6905 20.9828C12.9769 20.9123 13.2557 20.8135 13.5227 20.688C13.9998 20.4357 14.4303 20.1033 14.7956 19.7051C15.1056 19.4466 15.3848 19.1531 15.6278 18.8304C15.8468 18.4921 15.975 18.1028 15.9998 17.7001C16.0023 17.5273 15.9792 17.355 15.9313 17.189C15.822 16.8352 15.6531 16.5028 15.432 16.2062C15.1284 15.7934 14.7662 15.3314 14.4529 14.9088C14.2074 14.5089 13.8721 14.1723 13.4738 13.926C13.2574 13.796 13.018 13.7092 12.7688 13.6704C12.4096 13.6046 12.0398 13.6282 11.6919 13.7392C10.9869 13.9653 10.0861 14.2503 9.52807 14.3977C9.34127 14.4413 9.147 14.4413 8.9602 14.3977C8.86597 14.3578 8.7744 14.3119 8.68606 14.2601C8.32704 14.0417 8.01433 13.7545 7.76572 13.4149C7.29665 12.7941 6.87758 12.1368 6.51249 11.4492C6.09899 10.7618 5.8478 9.98853 5.77818 9.18861C5.7789 9.0098 5.82188 8.83371 5.90357 8.67481C5.98527 8.51592 6.10336 8.37874 6.24814 8.27457C7.30555 7.29172 7.57969 7.03617 7.85384 6.7708C7.97512 6.65423 8.08048 6.52204 8.16714 6.37766C8.23065 6.27197 8.28314 6.15999 8.3238 6.04349C8.46181 5.67963 8.48907 5.28282 8.40212 4.90339C8.24501 4.41318 8.04855 3.93658 7.81467 3.47826C7.70697 3.23254 7.60906 3.03597 7.52095 2.82957C7.40002 2.54338 7.26272 2.26444 7.10973 1.99415C6.89585 1.65786 6.59306 1.38787 6.23518 1.21431C5.87729 1.04075 5.48819 1.02944 5.09281 1.07027Z" stroke="" stroke-width="1.7" stroke-miterlimit="10"/>
</svg>
